# xmcd
#
# Track frame offsets: 
#        150
#        27542
#        53802
#        79515
#
# Disc length: 1438 seconds
#
# Revision: 0
# Processed by: cddbd v1.5.2PL0 Copyright (c) Steve Scherf et al.
# Submitted via: ExactAudioCopy v1.0b1
#
DISCID=28059c04
DTITLE=Afrika Bambaataa - Feeling Irie CDM
DYEAR=1993
DGENRE=Eurodance
TTITLE0=Feeling Irie (Vocal Irie Mix)
TTITLE1=Feeling Irie (Epic Mix)
TTITLE2=Feeling Irie (Hot Club Mix)
TTITLE3=Feeling Irie (Free Flowing Trance Mix)
EXTD=
EXTT0=
EXTT1=
EXTT2=
EXTT3=
PLAYORDER=
